# xmcd CD database file generated by Grip 3.1.10
# 
# Track frame offsets:
#       150
#       17767
#       34252
#       50172
# 
# Disc length: 1197 seconds
# 
# Revision: 1
# Processed by: cddbd v1.5.1PL0 Copyright (c) Steve Scherf et al.
# Submitted via: Grip 3.1.10
# 
DISCID=3004ab04
DTITLE=Anasazi - Ginseng Cowboys
DYEAR=1995
DGENRE=Alternative
TTITLE0=Aloysius
TTITLE1=The Captain's Heart Is Full
TTITLE2=Unwound
TTITLE3=The Captain's Heart Is Full (Titanic Mix)
EXTD=
EXTT0=
EXTT1=
EXTT2=
EXTT3=
PLAYORDER=
